<svg width="240" height="40" viewBox="0 0 240 40" fill="none" xmlns="http://www.w3.org/2000/svg">
<path d="M11.2188 11.7031L4.73438 31H0.1875L8.6875 8.25H11.5938L11.2188 11.7031ZM16.6406 31L10.125 11.7031L9.73438 8.25H12.6562L21.2031 31H16.6406ZM16.3438 22.5469V25.9375H4.14062V22.5469H16.3438ZM26.875 17.7031V31H22.75V14.0938H26.625L26.875 17.7031ZM26.2188 21.9375H25C25.0104 20.7083 25.1771 19.5938 25.5 18.5938C25.8229 17.5938 26.276 16.7344 26.8594 16.0156C27.4531 15.2969 28.1562 14.7448 28.9688 14.3594C29.7812 13.974 30.6875 13.7812 31.6875 13.7812C32.5 13.7812 33.2344 13.8958 33.8906 14.125C34.5469 14.3542 35.1094 14.7188 35.5781 15.2188C36.0573 15.7188 36.4219 16.375 36.6719 17.1875C36.9323 17.9896 37.0625 18.9792 37.0625 20.1562V31H32.9062V20.125C32.9062 19.3542 32.7917 18.7448 32.5625 18.2969C32.3438 17.849 32.0208 17.5312 31.5938 17.3438C31.1771 17.1562 30.6615 17.0625 30.0469 17.0625C29.4115 17.0625 28.8542 17.1927 28.375 17.4531C27.9062 17.7031 27.5104 18.0521 27.1875 18.5C26.875 18.9479 26.6354 19.4635 26.4688 20.0469C26.3021 20.6302 26.2188 21.2604 26.2188 21.9375ZM50.8438 27.4062V7H55V31H51.25L50.8438 27.4062ZM39.9844 22.75V22.4219C39.9844 21.1302 40.1302 19.9583 40.4219 18.9062C40.724 17.8438 41.1615 16.9323 41.7344 16.1719C42.3073 15.4115 43 14.8229 43.8125 14.4062C44.6354 13.9896 45.5677 13.7812 46.6094 13.7812C47.6198 13.7812 48.5 13.9844 49.25 14.3906C50.0104 14.7969 50.6562 15.375 51.1875 16.125C51.7292 16.875 52.1615 17.7656 52.4844 18.7969C52.8073 19.8177 53.0417 20.9427 53.1875 22.1719V23.0625C53.0417 24.2604 52.8073 25.3594 52.4844 26.3594C52.1615 27.3594 51.7292 28.2344 51.1875 28.9844C50.6562 29.724 50.0104 30.2969 49.25 30.7031C48.4896 31.1094 47.599 31.3125 46.5781 31.3125C45.5469 31.3125 44.6198 31.099 43.7969 30.6719C42.9844 30.2448 42.2917 29.6458 41.7188 28.875C41.1562 28.1042 40.724 27.1979 40.4219 26.1562C40.1302 25.1146 39.9844 23.9792 39.9844 22.75ZM44.125 22.4219V22.75C44.125 23.4792 44.1875 24.1615 44.3125 24.7969C44.4375 25.4323 44.6406 25.9948 44.9219 26.4844C45.2031 26.9635 45.5625 27.3385 46 27.6094C46.4479 27.8802 46.9896 28.0156 47.625 28.0156C48.4375 28.0156 49.1042 27.8385 49.625 27.4844C50.1562 27.1198 50.5677 26.625 50.8594 26C51.151 25.3646 51.3385 24.651 51.4219 23.8594V21.4062C51.3802 20.7812 51.2708 20.2031 51.0938 19.6719C50.9271 19.1406 50.6875 18.6823 50.375 18.2969C50.0729 17.9115 49.6979 17.6094 49.25 17.3906C48.8021 17.1719 48.2708 17.0625 47.6562 17.0625C47.0208 17.0625 46.4792 17.2031 46.0312 17.4844C45.5833 17.7552 45.2188 18.1354 44.9375 18.625C44.6562 19.1146 44.4479 19.6823 44.3125 20.3281C44.1875 20.974 44.125 21.6719 44.125 22.4219ZM62.8594 17.5469V31H58.7344V14.0938H62.6406L62.8594 17.5469ZM68 13.9844L67.9375 17.8281C67.7083 17.7865 67.4479 17.7552 67.1562 17.7344C66.875 17.7135 66.6094 17.7031 66.3594 17.7031C65.724 17.7031 65.1667 17.7917 64.6875 17.9688C64.2083 18.1354 63.8073 18.3802 63.4844 18.7031C63.1719 19.026 62.9323 19.4219 62.7656 19.8906C62.599 20.349 62.5052 20.8698 62.4844 21.4531L61.5938 21.3438C61.5938 20.2708 61.7031 19.276 61.9219 18.3594C62.1406 17.4427 62.4583 16.6406 62.875 15.9531C63.2917 15.2656 63.8125 14.7344 64.4375 14.3594C65.0729 13.974 65.8021 13.7812 66.625 13.7812C66.8542 13.7812 67.099 13.8021 67.3594 13.8438C67.6302 13.875 67.8438 13.9219 68 13.9844ZM77.5469 31.3125C76.2656 31.3125 75.1146 31.1042 74.0938 30.6875C73.0729 30.2708 72.2031 29.6927 71.4844 28.9531C70.776 28.2031 70.2292 27.3333 69.8438 26.3438C69.4688 25.3438 69.2812 24.2708 69.2812 23.125V22.5C69.2812 21.1979 69.4688 20.0156 69.8438 18.9531C70.2188 17.8802 70.75 16.9583 71.4375 16.1875C72.125 15.4167 72.9479 14.8229 73.9062 14.4062C74.8646 13.9896 75.9219 13.7812 77.0781 13.7812C78.276 13.7812 79.3333 13.9844 80.25 14.3906C81.1667 14.7865 81.9323 15.349 82.5469 16.0781C83.1615 16.8073 83.625 17.6823 83.9375 18.7031C84.25 19.7135 84.4062 20.8333 84.4062 22.0625V23.7969H71.1562V20.9531H80.3438V20.6406C80.3229 19.9844 80.1979 19.3854 79.9688 18.8438C79.7396 18.2917 79.3854 17.8542 78.9062 17.5312C78.4271 17.1979 77.8073 17.0312 77.0469 17.0312C76.4323 17.0312 75.8958 17.1667 75.4375 17.4375C74.9896 17.6979 74.6146 18.0729 74.3125 18.5625C74.0208 19.0417 73.8021 19.6146 73.6562 20.2812C73.5104 20.9479 73.4375 21.6875 73.4375 22.5V23.125C73.4375 23.8333 73.5312 24.4896 73.7188 25.0938C73.9167 25.6979 74.2031 26.224 74.5781 26.6719C74.9635 27.1094 75.4219 27.4531 75.9531 27.7031C76.4948 27.9427 77.1094 28.0625 77.7969 28.0625C78.6615 28.0625 79.4427 27.8958 80.1406 27.5625C80.849 27.2188 81.4635 26.7135 81.9844 26.0469L84.0625 28.2031C83.7083 28.724 83.2292 29.224 82.625 29.7031C82.0312 30.1823 81.3125 30.5729 80.4688 30.875C79.625 31.1667 78.651 31.3125 77.5469 31.3125ZM74.6562 11.7344L77.7188 6.98438H82.2812L78.0156 11.7344H74.6562ZM95.4531 8.25H103.719C105.448 8.25 106.932 8.51042 108.172 9.03125C109.411 9.55208 110.365 10.3229 111.031 11.3438C111.698 12.3646 112.031 13.6198 112.031 15.1094C112.031 16.2865 111.823 17.3073 111.406 18.1719C110.99 19.0365 110.401 19.7604 109.641 20.3438C108.891 20.9271 108.005 21.3854 106.984 21.7188L105.641 22.4062H98.3438L98.3125 19.0156H103.766C104.651 19.0156 105.385 18.8594 105.969 18.5469C106.552 18.2344 106.99 17.8021 107.281 17.25C107.583 16.6979 107.734 16.0677 107.734 15.3594C107.734 14.599 107.589 13.9427 107.297 13.3906C107.005 12.8281 106.562 12.3958 105.969 12.0938C105.375 11.7917 104.625 11.6406 103.719 11.6406H99.75V31H95.4531V8.25ZM108.297 31L103.031 20.8125L107.578 20.7969L112.906 30.7812V31H108.297ZM114.75 22.7188V22.3906C114.75 21.151 114.927 20.0104 115.281 18.9688C115.635 17.9167 116.151 17.0052 116.828 16.2344C117.505 15.4635 118.333 14.8646 119.312 14.4375C120.292 14 121.406 13.7812 122.656 13.7812C123.927 13.7812 125.052 14 126.031 14.4375C127.021 14.8646 127.854 15.4635 128.531 16.2344C129.208 17.0052 129.724 17.9167 130.078 18.9688C130.432 20.0104 130.609 21.151 130.609 22.3906V22.7188C130.609 23.9479 130.432 25.0885 130.078 26.1406C129.724 27.1823 129.208 28.0938 128.531 28.875C127.854 29.6458 127.026 30.2448 126.047 30.6719C125.068 31.099 123.948 31.3125 122.688 31.3125C121.438 31.3125 120.318 31.099 119.328 30.6719C118.339 30.2448 117.505 29.6458 116.828 28.875C116.151 28.0938 115.635 27.1823 115.281 26.1406C114.927 25.0885 114.75 23.9479 114.75 22.7188ZM118.875 22.3906V22.7188C118.875 23.4583 118.948 24.151 119.094 24.7969C119.24 25.4427 119.464 26.0104 119.766 26.5C120.068 26.9896 120.458 27.375 120.938 27.6562C121.427 27.9271 122.01 28.0625 122.688 28.0625C123.354 28.0625 123.927 27.9271 124.406 27.6562C124.885 27.375 125.276 26.9896 125.578 26.5C125.891 26.0104 126.12 25.4427 126.266 24.7969C126.411 24.151 126.484 23.4583 126.484 22.7188V22.3906C126.484 21.6615 126.411 20.9792 126.266 20.3438C126.12 19.6979 125.891 19.1302 125.578 18.6406C125.276 18.1406 124.88 17.75 124.391 17.4688C123.911 17.1771 123.333 17.0312 122.656 17.0312C121.99 17.0312 121.417 17.1771 120.938 17.4688C120.458 17.75 120.068 18.1406 119.766 18.6406C119.464 19.1302 119.24 19.6979 119.094 20.3438C118.948 20.9792 118.875 21.6615 118.875 22.3906ZM143.75 27.4062V7H147.906V31H144.156L143.75 27.4062ZM132.891 22.75V22.4219C132.891 21.1302 133.036 19.9583 133.328 18.9062C133.63 17.8438 134.068 16.9323 134.641 16.1719C135.214 15.4115 135.906 14.8229 136.719 14.4062C137.542 13.9896 138.474 13.7812 139.516 13.7812C140.526 13.7812 141.406 13.9844 142.156 14.3906C142.917 14.7969 143.562 15.375 144.094 16.125C144.635 16.875 145.068 17.7656 145.391 18.7969C145.714 19.8177 145.948 20.9427 146.094 22.1719V23.0625C145.948 24.2604 145.714 25.3594 145.391 26.3594C145.068 27.3594 144.635 28.2344 144.094 28.9844C143.562 29.724 142.917 30.2969 142.156 30.7031C141.396 31.1094 140.505 31.3125 139.484 31.3125C138.453 31.3125 137.526 31.099 136.703 30.6719C135.891 30.2448 135.198 29.6458 134.625 28.875C134.062 28.1042 133.63 27.1979 133.328 26.1562C133.036 25.1146 132.891 23.9792 132.891 22.75ZM137.031 22.4219V22.75C137.031 23.4792 137.094 24.1615 137.219 24.7969C137.344 25.4323 137.547 25.9948 137.828 26.4844C138.109 26.9635 138.469 27.3385 138.906 27.6094C139.354 27.8802 139.896 28.0156 140.531 28.0156C141.344 28.0156 142.01 27.8385 142.531 27.4844C143.062 27.1198 143.474 26.625 143.766 26C144.057 25.3646 144.245 24.651 144.328 23.8594V21.4062C144.286 20.7812 144.177 20.2031 144 19.6719C143.833 19.1406 143.594 18.6823 143.281 18.2969C142.979 17.9115 142.604 17.6094 142.156 17.3906C141.708 17.1719 141.177 17.0625 140.562 17.0625C139.927 17.0625 139.385 17.2031 138.938 17.4844C138.49 17.7552 138.125 18.1354 137.844 18.625C137.562 19.1146 137.354 19.6823 137.219 20.3281C137.094 20.974 137.031 21.6719 137.031 22.4219ZM155.766 17.5469V31H151.641V14.0938H155.547L155.766 17.5469ZM160.906 13.9844L160.844 17.8281C160.615 17.7865 160.354 17.7552 160.062 17.7344C159.781 17.7135 159.516 17.7031 159.266 17.7031C158.63 17.7031 158.073 17.7917 157.594 17.9688C157.115 18.1354 156.714 18.3802 156.391 18.7031C156.078 19.026 155.839 19.4219 155.672 19.8906C155.505 20.349 155.411 20.8698 155.391 21.4531L154.5 21.3438C154.5 20.2708 154.609 19.276 154.828 18.3594C155.047 17.4427 155.365 16.6406 155.781 15.9531C156.198 15.2656 156.719 14.7344 157.344 14.3594C157.979 13.974 158.708 13.7812 159.531 13.7812C159.76 13.7812 160.005 13.8021 160.266 13.8438C160.536 13.875 160.75 13.9219 160.906 13.9844ZM167.547 14.0938V31H163.406V14.0938H167.547ZM163.125 9.67188C163.125 9.05729 163.333 8.54688 163.75 8.14062C164.177 7.73438 164.75 7.53125 165.469 7.53125C166.188 7.53125 166.755 7.73438 167.172 8.14062C167.599 8.54688 167.812 9.05729 167.812 9.67188C167.812 10.276 167.599 10.7812 167.172 11.1875C166.755 11.5938 166.188 11.7969 165.469 11.7969C164.75 11.7969 164.177 11.5938 163.75 11.1875C163.333 10.7812 163.125 10.276 163.125 9.67188ZM182.234 14.0938H185.984V30.4844C185.984 32.0156 185.651 33.3125 184.984 34.375C184.328 35.4479 183.406 36.2604 182.219 36.8125C181.031 37.375 179.651 37.6562 178.078 37.6562C177.401 37.6562 176.667 37.5625 175.875 37.375C175.094 37.1875 174.339 36.8906 173.609 36.4844C172.891 36.0885 172.292 35.5729 171.812 34.9375L173.672 32.5C174.234 33.1562 174.87 33.651 175.578 33.9844C176.286 34.3281 177.052 34.5 177.875 34.5C178.708 34.5 179.417 34.3438 180 34.0312C180.594 33.7292 181.047 33.2812 181.359 32.6875C181.682 32.1042 181.844 31.3854 181.844 30.5312V17.9531L182.234 14.0938ZM170.812 22.75V22.4219C170.812 21.1302 170.969 19.9583 171.281 18.9062C171.594 17.8438 172.042 16.9323 172.625 16.1719C173.219 15.4115 173.932 14.8229 174.766 14.4062C175.609 13.9896 176.557 13.7812 177.609 13.7812C178.724 13.7812 179.661 13.9844 180.422 14.3906C181.193 14.7969 181.828 15.375 182.328 16.125C182.839 16.875 183.234 17.7656 183.516 18.7969C183.807 19.8177 184.031 20.9427 184.188 22.1719V23.0625C184.042 24.2604 183.807 25.3594 183.484 26.3594C183.172 27.3594 182.755 28.2344 182.234 28.9844C181.714 29.724 181.068 30.2969 180.297 30.7031C179.526 31.1094 178.62 31.3125 177.578 31.3125C176.536 31.3125 175.599 31.099 174.766 30.6719C173.932 30.2448 173.219 29.6458 172.625 28.875C172.042 28.1042 171.594 27.1979 171.281 26.1562C170.969 25.1146 170.812 23.9792 170.812 22.75ZM174.938 22.4219V22.75C174.938 23.4792 175.01 24.1615 175.156 24.7969C175.302 25.4323 175.526 25.9948 175.828 26.4844C176.13 26.9635 176.51 27.3385 176.969 27.6094C177.427 27.8802 177.974 28.0156 178.609 28.0156C179.464 28.0156 180.161 27.8385 180.703 27.4844C181.255 27.1198 181.672 26.625 181.953 26C182.245 25.3646 182.432 24.651 182.516 23.8594V21.4062C182.464 20.7812 182.349 20.2031 182.172 19.6719C182.005 19.1406 181.771 18.6823 181.469 18.2969C181.167 17.9115 180.781 17.6094 180.312 17.3906C179.844 17.1719 179.286 17.0625 178.641 17.0625C178.016 17.0625 177.469 17.2031 177 17.4844C176.531 17.7552 176.146 18.1354 175.844 18.625C175.542 19.1146 175.312 19.6823 175.156 20.3281C175.01 20.974 174.938 21.6719 174.938 22.4219ZM199.766 26.9844V14.0938H203.922V31H200.016L199.766 26.9844ZM200.297 23.4844L201.578 23.4531C201.578 24.5885 201.453 25.6354 201.203 26.5938C200.953 27.5521 200.562 28.3854 200.031 29.0938C199.51 29.7917 198.849 30.3385 198.047 30.7344C197.245 31.1198 196.297 31.3125 195.203 31.3125C194.37 31.3125 193.609 31.1979 192.922 30.9688C192.234 30.7292 191.641 30.3594 191.141 29.8594C190.651 29.349 190.271 28.6979 190 27.9062C189.729 27.1042 189.594 26.1406 189.594 25.0156V14.0938H193.719V25.0469C193.719 25.6094 193.781 26.0781 193.906 26.4531C194.042 26.8281 194.224 27.1354 194.453 27.375C194.693 27.6042 194.969 27.7708 195.281 27.875C195.604 27.9688 195.948 28.0156 196.312 28.0156C197.312 28.0156 198.099 27.8177 198.672 27.4219C199.255 27.0156 199.672 26.474 199.922 25.7969C200.172 25.1094 200.297 24.3385 200.297 23.4844ZM215.172 31.3125C213.891 31.3125 212.74 31.1042 211.719 30.6875C210.698 30.2708 209.828 29.6927 209.109 28.9531C208.401 28.2031 207.854 27.3333 207.469 26.3438C207.094 25.3438 206.906 24.2708 206.906 23.125V22.5C206.906 21.1979 207.094 20.0156 207.469 18.9531C207.844 17.8802 208.375 16.9583 209.062 16.1875C209.75 15.4167 210.573 14.8229 211.531 14.4062C212.49 13.9896 213.547 13.7812 214.703 13.7812C215.901 13.7812 216.958 13.9844 217.875 14.3906C218.792 14.7865 219.557 15.349 220.172 16.0781C220.786 16.8073 221.25 17.6823 221.562 18.7031C221.875 19.7135 222.031 20.8333 222.031 22.0625V23.7969H208.781V20.9531H217.969V20.6406C217.948 19.9844 217.823 19.3854 217.594 18.8438C217.365 18.2917 217.01 17.8542 216.531 17.5312C216.052 17.1979 215.432 17.0312 214.672 17.0312C214.057 17.0312 213.521 17.1667 213.062 17.4375C212.615 17.6979 212.24 18.0729 211.938 18.5625C211.646 19.0417 211.427 19.6146 211.281 20.2812C211.135 20.9479 211.062 21.6875 211.062 22.5V23.125C211.062 23.8333 211.156 24.4896 211.344 25.0938C211.542 25.6979 211.828 26.224 212.203 26.6719C212.589 27.1094 213.047 27.4531 213.578 27.7031C214.12 27.9427 214.734 28.0625 215.422 28.0625C216.286 28.0625 217.068 27.8958 217.766 27.5625C218.474 27.2188 219.089 26.7135 219.609 26.0469L221.688 28.2031C221.333 28.724 220.854 29.224 220.25 29.7031C219.656 30.1823 218.938 30.5729 218.094 30.875C217.25 31.1667 216.276 31.3125 215.172 31.3125ZM234.094 26.375C234.094 26.0208 234 25.7031 233.812 25.4219C233.625 25.1406 233.271 24.8854 232.75 24.6562C232.24 24.4167 231.49 24.1927 230.5 23.9844C229.625 23.7969 228.818 23.5625 228.078 23.2812C227.339 23 226.703 22.6615 226.172 22.2656C225.641 21.8594 225.224 21.3854 224.922 20.8438C224.63 20.2917 224.484 19.6562 224.484 18.9375C224.484 18.2396 224.635 17.5833 224.938 16.9688C225.24 16.3438 225.677 15.7969 226.25 15.3281C226.823 14.849 227.521 14.474 228.344 14.2031C229.167 13.9219 230.094 13.7812 231.125 13.7812C232.562 13.7812 233.797 14.0156 234.828 14.4844C235.87 14.9531 236.667 15.599 237.219 16.4219C237.771 17.2344 238.047 18.151 238.047 19.1719H233.922C233.922 18.724 233.818 18.3177 233.609 17.9531C233.411 17.5885 233.104 17.2969 232.688 17.0781C232.271 16.849 231.745 16.7344 231.109 16.7344C230.536 16.7344 230.052 16.8281 229.656 17.0156C229.271 17.2031 228.979 17.4479 228.781 17.75C228.583 18.0521 228.484 18.3854 228.484 18.75C228.484 19.0208 228.536 19.2656 228.641 19.4844C228.755 19.6927 228.938 19.8854 229.188 20.0625C229.438 20.2396 229.776 20.401 230.203 20.5469C230.641 20.6927 231.177 20.8333 231.812 20.9688C233.073 21.2188 234.172 21.5521 235.109 21.9688C236.057 22.375 236.797 22.9167 237.328 23.5938C237.859 24.2708 238.125 25.1354 238.125 26.1875C238.125 26.9375 237.964 27.625 237.641 28.25C237.318 28.8646 236.849 29.401 236.234 29.8594C235.62 30.3177 234.885 30.6771 234.031 30.9375C233.177 31.1875 232.214 31.3125 231.141 31.3125C229.589 31.3125 228.276 31.0365 227.203 30.4844C226.13 29.9219 225.318 29.2135 224.766 28.3594C224.214 27.4948 223.938 26.599 223.938 25.6719H227.891C227.922 26.3281 228.099 26.8542 228.422 27.25C228.745 27.6458 229.151 27.9323 229.641 28.1094C230.141 28.276 230.667 28.3594 231.219 28.3594C231.844 28.3594 232.37 28.276 232.797 28.1094C233.224 27.9323 233.547 27.6979 233.766 27.4062C233.984 27.1042 234.094 26.7604 234.094 26.375Z" fill="#141414"/>
</svg>
