<svg width="120" height="34" viewBox="0 0 120 34" fill="none" xmlns="http://www.w3.org/2000/svg">
<path d="M3.525 33C2.535 33 1.77 32.745 1.23 32.235C0.72 31.695 0.465 30.93 0.465 29.94V4.335C0.465 3.345 0.72 2.595 1.23 2.085C1.77 1.545 2.535 1.275 3.525 1.275H14.325C16.545 1.275 18.435 1.605 19.995 2.265C21.555 2.925 22.74 3.87 23.55 5.1C24.39 6.33 24.81 7.8 24.81 9.51C24.81 11.43 24.255 13.05 23.145 14.37C22.035 15.69 20.52 16.575 18.6 17.025V16.35C20.82 16.68 22.545 17.52 23.775 18.87C25.005 20.22 25.62 21.975 25.62 24.135C25.62 26.955 24.66 29.145 22.74 30.705C20.85 32.235 18.21 33 14.82 33H3.525ZM6 28.635H14.1C16.14 28.635 17.64 28.245 18.6 27.465C19.56 26.655 20.04 25.455 20.04 23.865C20.04 22.245 19.56 21.045 18.6 20.265C17.64 19.485 16.14 19.095 14.1 19.095H6V28.635ZM6 14.73H13.335C15.315 14.73 16.785 14.355 17.745 13.605C18.735 12.825 19.23 11.685 19.23 10.185C19.23 8.685 18.735 7.56 17.745 6.81C16.785 6.03 15.315 5.64 13.335 5.64H6V14.73ZM40.9414 33.45C38.6614 33.45 36.6814 32.985 35.0014 32.055C33.3214 31.125 32.0164 29.805 31.0864 28.095C30.1564 26.355 29.6914 24.315 29.6914 21.975C29.6914 20.205 29.9464 18.63 30.4564 17.25C30.9964 15.84 31.7614 14.64 32.7514 13.65C33.7414 12.63 34.9264 11.865 36.3064 11.355C37.6864 10.815 39.2314 10.545 40.9414 10.545C43.2214 10.545 45.2014 11.01 46.8814 11.94C48.5614 12.87 49.8664 14.19 50.7964 15.9C51.7264 17.61 52.1914 19.635 52.1914 21.975C52.1914 23.745 51.9214 25.335 51.3814 26.745C50.8714 28.155 50.1214 29.37 49.1314 30.39C48.1414 31.38 46.9564 32.145 45.5764 32.685C44.1964 33.195 42.6514 33.45 40.9414 33.45ZM40.9414 29.175C42.0514 29.175 43.0264 28.905 43.8664 28.365C44.7064 27.825 45.3514 27.03 45.8014 25.98C46.2814 24.9 46.5214 23.565 46.5214 21.975C46.5214 19.575 46.0114 17.79 44.9914 16.62C43.9714 15.42 42.6214 14.82 40.9414 14.82C39.8314 14.82 38.8564 15.09 38.0164 15.63C37.1764 16.14 36.5164 16.935 36.0364 18.015C35.5864 19.065 35.3614 20.385 35.3614 21.975C35.3614 24.345 35.8714 26.145 36.8914 27.375C37.9114 28.575 39.2614 29.175 40.9414 29.175ZM64.0792 33.45C62.4892 33.45 61.0642 33.15 59.8042 32.55C58.5742 31.92 57.5992 31.08 56.8792 30.03C56.1892 28.98 55.8442 27.795 55.8442 26.475C55.8442 24.855 56.2642 23.58 57.1042 22.65C57.9442 21.69 59.3092 21 61.1992 20.58C63.0892 20.16 65.6242 19.95 68.8042 19.95H71.0542V23.19H68.8492C66.9892 23.19 65.5042 23.28 64.3942 23.46C63.2842 23.64 62.4892 23.955 62.0092 24.405C61.5592 24.825 61.3342 25.425 61.3342 26.205C61.3342 27.195 61.6792 28.005 62.3692 28.635C63.0592 29.265 64.0192 29.58 65.2492 29.58C66.2392 29.58 67.1092 29.355 67.8592 28.905C68.6392 28.425 69.2542 27.78 69.7042 26.97C70.1542 26.16 70.3792 25.23 70.3792 24.18V19.005C70.3792 17.505 70.0492 16.425 69.3892 15.765C68.7292 15.105 67.6192 14.775 66.0592 14.775C65.1892 14.775 64.2442 14.88 63.2242 15.09C62.2342 15.3 61.1842 15.66 60.0742 16.17C59.5042 16.44 58.9942 16.515 58.5442 16.395C58.1242 16.275 57.7942 16.035 57.5542 15.675C57.3142 15.285 57.1942 14.865 57.1942 14.415C57.1942 13.965 57.3142 13.53 57.5542 13.11C57.7942 12.66 58.1992 12.33 58.7692 12.12C60.1492 11.55 61.4692 11.145 62.7292 10.905C64.0192 10.665 65.1892 10.545 66.2392 10.545C68.3992 10.545 70.1692 10.875 71.5492 11.535C72.9592 12.195 74.0092 13.2 74.6992 14.55C75.3892 15.87 75.7342 17.58 75.7342 19.68V30.48C75.7342 31.41 75.5092 32.13 75.0592 32.64C74.6092 33.12 73.9642 33.36 73.1242 33.36C72.2842 33.36 71.6242 33.12 71.1442 32.64C70.6942 32.13 70.4692 31.41 70.4692 30.48V28.32H70.8292C70.6192 29.37 70.1992 30.285 69.5692 31.065C68.9692 31.815 68.2042 32.4 67.2742 32.82C66.3442 33.24 65.2792 33.45 64.0792 33.45ZM84.3236 33.36C83.3936 33.36 82.6736 33.12 82.1636 32.64C81.6836 32.13 81.4436 31.41 81.4436 30.48V13.47C81.4436 12.54 81.6836 11.835 82.1636 11.355C82.6436 10.875 83.3186 10.635 84.1886 10.635C85.0586 10.635 85.7336 10.875 86.2136 11.355C86.6936 11.835 86.9336 12.54 86.9336 13.47V16.305H86.4836C86.9036 14.505 87.7286 13.14 88.9586 12.21C90.1886 11.28 91.8236 10.725 93.8636 10.545C94.4936 10.485 94.9886 10.65 95.3486 11.04C95.7386 11.4 95.9636 11.97 96.0236 12.75C96.0836 13.5 95.9036 14.115 95.4836 14.595C95.0936 15.045 94.4936 15.315 93.6836 15.405L92.6936 15.495C90.8636 15.675 89.4836 16.245 88.5536 17.205C87.6236 18.135 87.1586 19.455 87.1586 21.165V30.48C87.1586 31.41 86.9186 32.13 86.4386 32.64C85.9586 33.12 85.2536 33.36 84.3236 33.36ZM107.174 33.45C105.254 33.45 103.559 32.985 102.089 32.055C100.649 31.125 99.5241 29.805 98.7141 28.095C97.9041 26.355 97.4991 24.315 97.4991 21.975C97.4991 19.605 97.9041 17.58 98.7141 15.9C99.5241 14.19 100.649 12.87 102.089 11.94C103.559 11.01 105.254 10.545 107.174 10.545C109.004 10.545 110.594 10.995 111.944 11.895C113.324 12.795 114.254 13.98 114.734 15.45H114.239V3.75C114.239 2.82 114.479 2.115 114.959 1.635C115.439 1.155 116.129 0.914997 117.029 0.914997C117.929 0.914997 118.619 1.155 119.099 1.635C119.609 2.115 119.864 2.82 119.864 3.75V30.48C119.864 31.41 119.624 32.13 119.144 32.64C118.664 33.12 117.974 33.36 117.074 33.36C116.174 33.36 115.484 33.12 115.004 32.64C114.524 32.13 114.284 31.41 114.284 30.48V26.97L114.779 28.32C114.329 29.88 113.414 31.125 112.034 32.055C110.654 32.985 109.034 33.45 107.174 33.45ZM108.749 29.175C109.859 29.175 110.834 28.905 111.674 28.365C112.514 27.825 113.159 27.03 113.609 25.98C114.089 24.9 114.329 23.565 114.329 21.975C114.329 19.575 113.819 17.79 112.799 16.62C111.779 15.42 110.429 14.82 108.749 14.82C107.639 14.82 106.664 15.09 105.824 15.63C104.984 16.14 104.324 16.935 103.844 18.015C103.394 19.065 103.169 20.385 103.169 21.975C103.169 24.345 103.679 26.145 104.699 27.375C105.719 28.575 107.069 29.175 108.749 29.175Z" fill="white"/>
</svg>
